<svg width="681" height="203" viewBox="0 0 681 203" fill="none" xmlns="http://www.w3.org/2000/svg">
<g clip-path="url(#clip0_1358_20185)">
<path fill-rule="evenodd" clip-rule="evenodd" d="M-28.3991 420.36C-8.16718 448.438 17.1414 470.702 45.3635 486.798C46.5841 487.51 47.868 488.212 49.1351 488.891C52.3449 490.646 55.6078 492.327 58.8836 493.928C71.2082 499.939 83.9851 504.81 97.1109 508.545C128.209 517.441 161.038 519.854 193.339 515.397C195.249 515.152 197.183 514.891 199.073 514.519C203.984 513.775 208.87 512.801 213.72 511.677C231.587 507.61 249.145 501.396 266 492.929C277.116 487.396 287.925 480.846 298.332 473.347C308.763 465.832 318.356 457.646 327.147 448.836C340.513 435.527 351.965 420.838 361.501 405.159L361.524 405.142C364.102 400.915 366.55 396.605 368.803 392.222C369.72 390.5 370.574 388.789 371.451 387.06C385.838 357.841 393.957 325.959 395.384 293.628C395.995 279.994 395.418 266.333 393.641 252.722C393.159 249.108 392.597 245.481 391.948 241.881C391.712 240.424 391.446 239.024 391.14 237.617C384.803 205.752 371.695 174.698 351.463 146.619C343.746 135.909 335.312 126.069 326.248 117.073C312.879 103.821 298.217 92.4555 282.583 83.0292C278.56 80.5872 274.487 78.3223 270.338 76.1476C268.639 75.2139 266.888 74.3538 265.16 73.4769C189.954 36.5511 97.3466 41.2035 24.6584 93.5782C-48.0532 145.97 -81.777 232.344 -70.4256 315.35C-70.1641 317.283 -69.8793 319.2 -69.5311 321.107C-68.8215 325.725 -67.9219 330.311 -66.8788 334.901C-62.9088 352.732 -56.7516 370.26 -48.4055 387.096L-48.3887 387.119C-42.7637 398.558 -36.0993 409.673 -28.3991 420.36ZM-25.7681 418.464C-34.2568 406.683 -41.4499 394.393 -47.4302 381.724C-55.3692 364.914 -61.1025 347.433 -64.7185 329.701C-65.6414 325.131 -66.4545 320.517 -67.0607 315.896C-67.3687 313.996 -67.6135 312.085 -67.7949 310.165C-77.0671 229.799 -43.6858 146.926 26.6044 96.279C96.8713 45.649 186.043 40.2535 259.326 74.4617C261.067 75.2585 262.802 76.0954 264.513 76.949C268.699 79.0267 272.824 81.218 276.844 83.5567C292.503 92.5759 307.254 103.524 320.687 116.375C330.835 126.041 340.25 136.801 348.756 148.605C368.115 175.473 380.861 205.091 387.298 235.575C387.604 236.981 387.887 238.405 388.153 239.805C388.848 243.371 389.457 246.965 389.946 250.539C391.886 264.032 392.619 277.616 392.148 291.149C391.122 322.271 383.807 353.009 370.527 381.36C369.746 383.124 368.91 384.859 368.033 386.588C365.859 390.983 363.532 395.313 361.051 399.577C351.938 415.303 340.887 430.057 327.892 443.488L327.869 443.505C318.392 453.375 307.885 462.503 296.383 470.79C284.905 479.06 272.905 486.116 260.576 492.028C243.729 500.064 226.212 505.894 208.427 509.584C203.574 510.604 198.73 511.442 193.856 512.089C191.939 512.374 190.028 512.618 188.124 512.823C157.011 516.424 125.538 513.635 95.6909 504.758C82.7047 500.922 70.0507 495.927 57.8659 489.816C54.59 488.214 51.3737 486.5 48.2105 484.711C46.9666 484.016 45.706 483.297 44.5087 482.568L44.4919 482.545C17.6523 466.797 -6.4086 445.332 -25.7681 418.464Z" fill="url(#paint0_linear_1358_20185)" fill-opacity="0.75"/>
<path fill-rule="evenodd" clip-rule="evenodd" d="M85.0361 577.797C92.7363 588.483 101.17 598.323 110.235 607.319C123.563 620.565 138.225 631.93 153.86 641.357C157.883 643.799 161.972 646.087 166.121 648.261C167.843 649.178 169.588 650.079 171.38 650.945L171.403 650.928C246.525 687.985 339.133 683.332 411.845 630.941C484.556 578.549 518.28 492.175 506.929 409.169L506.952 409.152C506.697 407.179 506.412 405.262 506.047 403.332C505.337 398.714 504.421 394.104 503.378 389.515L503.401 389.498C499.425 371.707 493.268 354.179 484.921 337.343C479.273 325.921 472.592 314.783 464.892 304.096C444.677 276.04 419.368 253.777 391.146 237.681C389.909 236.945 388.625 236.243 387.358 235.565C384.171 233.793 380.908 232.112 377.609 230.528C365.284 224.517 352.467 219.639 339.342 215.904C308.26 207.032 275.448 204.642 243.177 209.042L243.16 209.019C241.227 209.28 239.31 209.565 237.403 209.913L237.386 209.89C232.509 210.68 227.629 211.615 222.78 212.739C204.929 216.829 187.394 223.026 170.522 231.469L170.499 231.486C159.359 237.036 148.558 243.546 138.127 251.062C127.72 258.561 118.103 266.764 109.319 275.533C95.9528 288.842 84.501 303.531 74.9881 319.193C72.3868 323.437 69.9394 327.747 67.6391 332.164L67.6559 332.187C66.7221 333.885 65.8452 335.614 65.0084 337.349C50.5975 366.585 42.4961 398.49 41.0748 430.781C40.4639 444.415 41.0575 458.1 42.8583 471.693C43.317 475.324 43.8791 478.951 44.551 482.535L44.5678 482.558C44.8105 483.975 45.07 485.415 45.3593 486.798C51.6957 518.664 64.8042 549.718 85.0361 577.797ZM115.685 608.061C105.561 598.378 96.179 587.665 87.6903 575.884C68.3308 549.016 55.5852 519.399 49.1477 488.914C48.8584 487.531 48.5356 486.101 48.2864 484.724C47.5911 481.158 46.9825 477.564 46.4772 473.967L46.4605 473.943C44.5199 460.451 43.7866 446.866 44.2811 433.317C45.3069 402.195 52.6226 371.457 65.9028 343.106L65.8861 343.083C66.6828 341.342 67.5197 339.607 68.3901 337.918L68.3733 337.895C70.5469 333.499 72.9208 329.136 75.385 324.849C84.5142 309.146 95.5654 294.392 108.52 280.954L108.503 280.931C117.997 271.084 128.504 261.957 140.006 253.67C151.508 245.382 163.508 238.327 175.854 232.438L175.877 232.421C192.724 224.385 210.217 218.572 228.002 214.882C232.832 213.878 237.676 213.041 242.557 212.354L242.574 212.377C244.474 212.069 246.401 211.847 248.305 211.643C279.395 208.058 310.868 210.847 340.698 219.701C353.661 223.554 366.339 228.533 378.523 234.644C381.776 236.262 384.992 237.976 388.155 239.765C389.399 240.46 390.66 241.179 391.897 241.914C418.737 257.663 442.821 279.111 462.181 305.979C470.686 317.783 477.913 330.12 483.87 342.805C491.792 359.592 497.532 377.033 501.131 394.742C502.054 399.312 502.85 403.902 503.497 408.53C503.781 410.447 504.043 412.38 504.264 414.308L504.241 414.324C513.496 494.667 480.155 577.547 409.888 628.177C339.598 678.823 250.426 684.219 177.127 649.987L177.104 650.004C175.346 649.184 173.571 648.341 171.842 647.464C167.657 645.386 163.555 643.178 159.512 640.856C143.829 631.854 129.102 620.889 115.685 608.061Z" fill="url(#paint1_linear_1358_20185)" fill-opacity="0.75"/>
<path fill-rule="evenodd" clip-rule="evenodd" d="M107.062 442.342C114.561 452.749 122.78 462.39 131.574 471.157C144.866 484.499 159.555 495.951 175.193 505.481C179.46 508.065 183.794 510.496 188.187 512.813C189.892 513.707 191.597 514.6 193.355 515.42C222.568 529.848 254.473 537.95 286.788 539.354C300.421 539.965 314.083 539.388 327.693 537.611C331.324 537.152 334.935 536.567 338.535 535.918C339.968 535.698 341.392 535.416 342.798 535.11C374.664 528.773 405.718 515.665 433.773 495.45C444.483 487.733 454.3 479.315 463.32 470.234L463.343 470.218C476.548 456.883 487.913 442.221 497.34 426.586C499.782 422.563 502.047 418.49 504.245 414.325L504.268 414.308C505.185 412.586 506.062 410.858 506.922 409.106L506.945 409.089C543.968 333.92 539.299 241.289 486.924 168.601C434.532 95.8895 348.175 62.189 265.152 73.5171C263.179 73.7721 261.262 74.0569 259.355 74.4051C254.737 75.1147 250.128 76.0311 245.538 77.0742C227.707 81.0442 210.219 87.2079 193.39 95.5139C181.944 101.179 170.806 107.86 160.119 115.56C132.064 135.775 109.801 161.084 93.7042 189.306C92.9855 190.567 92.2667 191.827 91.5946 193.055C89.8398 196.264 88.1753 199.55 86.5743 202.826C80.5804 215.174 75.686 227.968 71.9505 241.094C63.0551 272.192 60.6652 305.004 65.0819 337.298C65.3267 339.209 65.6115 341.126 65.9428 343.009L65.9596 343.033C66.7438 347.95 67.6613 352.807 68.7855 357.656L68.8023 357.679C72.8925 375.53 79.113 393.048 87.5392 409.897C93.0365 421.109 99.5462 431.911 107.062 442.342ZM136.978 471.932C127.107 462.455 117.963 451.924 109.693 440.446C101.422 428.968 94.3503 416.944 88.4614 404.599L88.4446 404.575C80.4088 387.728 74.5888 370.275 70.9225 352.473C69.9249 347.603 69.0643 342.776 68.417 337.902L68.4003 337.878C68.1323 335.985 67.9043 334.097 67.6828 332.17L67.666 332.147C64.0648 301.034 66.8707 269.584 75.7079 239.73C79.544 226.744 84.5391 214.09 90.6504 201.905C92.2682 198.653 93.983 195.437 95.7714 192.273C96.4668 191.029 97.1855 189.769 97.9145 188.572C113.669 161.692 135.134 137.631 162.002 118.271C173.783 109.783 186.096 102.573 198.782 96.6159C215.552 88.6704 232.992 82.9306 250.718 79.3546C255.288 78.4317 259.919 77.642 264.506 76.9892C266.44 76.7277 268.374 76.4662 270.318 76.268C350.683 66.9958 433.563 100.337 484.21 170.627C534.857 240.917 540.259 330.049 506.027 403.348C505.207 405.107 504.364 406.881 503.487 408.61C501.45 412.802 499.241 416.904 496.879 420.94C487.86 436.6 476.896 451.327 464.067 464.744C454.378 474.908 443.619 484.323 431.838 492.812C404.97 512.172 375.352 524.917 344.891 531.338C343.484 531.644 342.061 531.927 340.661 532.193C337.095 532.888 333.524 533.48 329.927 533.985C316.451 535.949 302.85 536.659 289.334 536.211C258.211 535.185 227.433 527.863 199.083 514.583C197.342 513.786 195.607 512.949 193.918 512.079C189.523 509.905 185.153 507.571 180.889 505.09C165.186 495.961 150.415 484.887 136.978 471.932Z" fill="url(#paint2_linear_1358_20185)" fill-opacity="0.75"/>
<path fill-rule="evenodd" clip-rule="evenodd" d="M367.734 366.783C378.185 340.789 383.642 313.018 383.826 285.049C383.965 271.791 382.906 258.441 380.626 245.264C368.831 238.907 356.52 233.7 343.906 229.596C317.309 220.959 289.222 217.322 261.297 219.015C276.958 228.528 291.647 239.98 304.956 253.345C320.729 255.846 336.16 260.326 350.848 266.72C352.242 282.694 351.584 298.766 348.97 314.479C357.436 331.334 363.65 348.892 367.734 366.783Z" fill="url(#paint3_linear_1358_20185)" fill-opacity="0.75"/>
<path fill-rule="evenodd" clip-rule="evenodd" d="M108.757 186.879C122.373 185.061 136.058 184.468 149.685 185.119C160.014 172.406 172.146 160.87 186.046 150.855C208.164 134.917 232.584 124.432 257.725 119.121C279.893 132.116 299.738 149.792 315.676 171.91C325.691 185.81 333.525 200.609 339.323 215.921C352.448 219.656 365.242 224.551 377.59 230.544C371.003 203.387 359.181 177.065 341.885 153.06C331.669 138.881 320.108 126.272 307.442 115.272C293.789 103.393 278.929 93.3726 263.177 85.3045C245.721 87.9787 228.477 92.7636 211.805 99.7179C196.326 106.167 181.329 114.462 167.173 124.662C143.152 141.935 123.584 163.179 108.757 186.879Z" fill="url(#paint4_linear_1358_20185)" fill-opacity="0.75"/>
<path fill-rule="evenodd" clip-rule="evenodd" d="M-50.4237 555.815C1.95107 628.503 88.3254 662.227 171.365 650.922L171.388 650.905C173.322 650.644 175.215 650.376 177.122 650.027L177.145 650.011C181.746 649.278 186.349 648.401 190.939 647.358C208.77 643.388 226.275 637.248 243.134 628.885L243.157 628.868C254.58 623.22 265.694 616.556 276.404 608.839C304.46 588.623 326.723 563.315 342.819 535.093C343.555 533.855 344.257 532.571 344.936 531.304C346.69 528.095 348.388 524.855 349.996 521.539C356.007 509.215 360.861 496.414 364.596 483.288C373.492 452.19 375.882 419.378 371.465 387.084C371.203 385.15 370.919 383.233 370.587 381.35C369.82 376.455 368.879 371.616 367.755 366.766L367.738 366.743C363.671 348.876 357.44 331.294 348.974 314.439C343.441 303.323 336.914 292.498 329.415 282.091C321.916 271.683 313.73 262.089 304.96 253.305C291.628 239.956 276.946 228.465 261.301 218.975C257.057 216.374 252.763 213.949 248.347 211.649C246.642 210.755 244.914 209.879 243.202 209.025L243.185 209.002C213.949 194.591 182.044 186.489 149.752 185.068C136.119 184.457 122.434 185.051 108.824 186.828C105.21 187.31 101.566 187.849 97.9823 188.521C96.5655 188.764 95.1254 189.023 93.7422 189.313C61.8764 195.649 30.8225 208.757 2.76696 228.973C-7.94304 236.69 -17.7827 245.124 -26.7791 254.188C-40.0312 267.556 -51.3964 282.218 -60.8227 297.853C-63.2647 301.876 -65.5465 305.925 -67.7043 310.098C-68.6148 311.779 -69.4982 313.548 -70.3751 315.276C-107.468 390.495 -102.815 483.103 -50.4237 555.815ZM-47.7229 553.869C-98.3697 483.578 -103.765 394.407 -69.5337 321.107C-68.7537 319.343 -67.9168 317.608 -67.0231 315.903C-64.9855 311.711 -62.7773 307.609 -60.4322 303.549C-51.3897 287.873 -40.4186 273.106 -27.5671 259.672C-17.8846 249.547 -7.17144 240.166 4.60957 231.677C31.4777 212.318 61.0953 199.572 91.5796 193.134C92.9628 192.845 94.3861 192.562 95.7861 192.296C99.376 191.584 102.946 190.993 106.561 190.511C120.053 188.57 133.638 187.837 147.187 188.331C178.286 189.374 209.024 196.69 237.381 209.93L237.398 209.953C239.163 210.733 240.874 211.587 242.586 212.44L242.602 212.464C246.998 214.637 251.368 216.971 255.632 219.452L255.648 219.475C271.375 228.588 286.146 239.662 299.583 252.617C309.43 262.111 318.581 272.601 326.851 284.079C335.139 295.581 342.194 307.581 348.083 319.927C356.135 336.797 361.966 354.314 365.632 372.116C366.636 376.946 367.473 381.789 368.137 386.687C368.429 388.564 368.657 390.451 368.878 392.379C372.479 423.492 369.69 454.965 360.83 484.835C356.977 497.798 351.982 510.452 345.871 522.637C344.253 525.89 342.538 529.106 340.75 532.269C340.071 533.536 339.335 534.774 338.6 536.011C322.851 562.85 301.404 586.935 274.536 606.294C262.731 614.8 250.395 622.026 237.709 627.983C220.899 635.922 203.442 641.639 185.733 645.238L185.709 645.255C181.139 646.178 176.532 646.951 171.921 647.62C170.004 647.905 168.094 648.15 166.19 648.354C85.747 657.47 2.92392 624.159 -47.7229 553.869Z" fill="url(#paint5_linear_1358_20185)" fill-opacity="0.75"/>
<path fill-rule="evenodd" clip-rule="evenodd" d="M-19.3766 413.294C-2.08049 437.298 19.1637 456.866 42.8637 471.693C41.0629 458.1 40.4693 444.415 41.0802 430.781C28.3908 420.436 16.8149 408.297 6.7996 394.397C-9.13762 372.279 -19.6233 347.859 -24.9346 322.718C-11.9391 300.55 5.73643 280.705 27.8316 264.784C41.7313 254.769 56.5373 246.895 71.8423 241.137C75.5778 228.012 80.4722 215.218 86.466 202.87C59.2916 209.434 32.9462 221.272 8.94183 238.568C-5.21399 248.768 -17.823 260.329 -28.8228 272.995C-40.7193 286.625 -50.7225 301.508 -58.7841 317.22C-56.0932 334.699 -51.3148 351.983 -44.3437 368.678C-37.878 384.18 -29.5764 399.138 -19.3766 413.294Z" fill="url(#paint6_linear_1358_20185)" fill-opacity="0.75"/>
<path fill-rule="evenodd" clip-rule="evenodd" d="M116.372 435.631C126.538 449.741 138.066 462.303 150.657 473.25C164.418 485.229 179.431 495.315 195.344 503.409C212.984 500.745 230.434 495.952 247.262 488.92C262.671 482.522 277.542 474.247 291.628 464.098C305.714 453.948 318.276 442.421 329.24 429.852C341.219 416.092 351.289 401.055 359.44 385.172L359.463 385.155C356.775 367.532 351.966 350.058 344.957 333.214C338.535 317.822 330.284 302.934 320.118 288.824C309.968 274.739 298.457 262.199 285.889 251.236C272.128 239.256 257.108 229.21 241.266 221.066L241.249 221.043C241.226 221.059 241.209 221.036 241.209 221.036C223.569 223.701 206.142 228.477 189.291 235.525C173.882 241.924 158.97 250.192 144.861 260.358C130.775 270.508 118.213 282.035 107.266 294.627C95.2867 308.387 85.2472 323.367 77.1195 339.234L77.1363 339.257C79.7611 356.89 84.5768 374.324 91.5852 391.168C97.9774 406.618 106.205 421.522 116.372 435.631ZM200.802 469.553C178.547 456.585 158.622 438.896 142.634 416.708C126.664 394.543 116.191 370.043 110.933 344.828C123.901 322.574 141.59 302.649 163.778 286.661C185.966 270.673 210.466 260.201 235.681 254.943C257.935 267.911 277.878 285.623 293.832 307.765C309.819 329.953 320.292 354.452 325.55 379.667C312.582 401.922 294.87 421.864 272.705 437.835C250.5 453.799 226.017 464.295 200.802 469.553Z" fill="url(#paint7_linear_1358_20185)" fill-opacity="0.75"/>
<path fill-rule="evenodd" clip-rule="evenodd" d="M74.9943 319.193C84.5072 303.531 95.9591 288.843 109.325 275.533C111.802 259.777 116.305 244.33 122.699 229.642C138.696 228.231 154.768 228.889 170.505 231.486L170.528 231.469C187.383 223.003 204.918 216.806 222.786 212.739C196.809 202.311 169.038 196.855 141.074 196.63C127.793 196.508 114.444 197.567 101.266 199.847C94.9265 211.666 89.7031 223.953 85.6386 236.574C76.9381 263.181 73.3244 291.251 74.9943 319.193Z" fill="url(#paint8_linear_1358_20185)" fill-opacity="0.75"/>
</g>
<defs>
<linearGradient id="paint0_linear_1358_20185" x1="24.6816" y1="93.5614" x2="298.332" y2="473.347" gradientUnits="userSpaceOnUse">
<stop stop-color="#2C4E9B" stop-opacity="0.1"/>
<stop offset="1" stop-color="white" stop-opacity="0.1"/>
</linearGradient>
<linearGradient id="paint1_linear_1358_20185" x1="138.139" y1="251.053" x2="411.856" y2="630.932" gradientUnits="userSpaceOnUse">
<stop stop-color="#2C4E9B" stop-opacity="0.1"/>
<stop offset="1" stop-color="white" stop-opacity="0.1"/>
</linearGradient>
<linearGradient id="paint2_linear_1358_20185" x1="160.143" y1="115.544" x2="433.843" y2="495.399" gradientUnits="userSpaceOnUse">
<stop stop-color="#2C4E9B" stop-opacity="0.1"/>
<stop offset="1" stop-color="white" stop-opacity="0.1"/>
</linearGradient>
<linearGradient id="paint3_linear_1358_20185" x1="294.335" y1="195.21" x2="400.795" y2="342.961" gradientUnits="userSpaceOnUse">
<stop stop-color="#2C4E9B" stop-opacity="0.1"/>
<stop offset="1" stop-color="white" stop-opacity="0.1"/>
</linearGradient>
<linearGradient id="paint4_linear_1358_20185" x1="183.96" y1="112.566" x2="306.089" y2="282.064" gradientUnits="userSpaceOnUse">
<stop stop-color="#2C4E9B" stop-opacity="0.1"/>
<stop offset="1" stop-color="white" stop-opacity="0.1"/>
</linearGradient>
<linearGradient id="paint5_linear_1358_20185" x1="2.66218" y1="229.048" x2="276.346" y2="608.88" gradientUnits="userSpaceOnUse">
<stop stop-color="#2C4E9B" stop-opacity="0.1"/>
<stop offset="1" stop-color="white" stop-opacity="0.1"/>
</linearGradient>
<linearGradient id="paint6_linear_1358_20185" x1="-7.8333" y1="250.655" x2="114.33" y2="420.199" gradientUnits="userSpaceOnUse">
<stop stop-color="#2C4E9B" stop-opacity="0.1"/>
<stop offset="1" stop-color="white" stop-opacity="0.1"/>
</linearGradient>
<linearGradient id="paint7_linear_1358_20185" x1="144.85" y1="260.367" x2="291.64" y2="464.089" gradientUnits="userSpaceOnUse">
<stop stop-color="#2C4E9B" stop-opacity="0.1"/>
<stop offset="1" stop-color="white" stop-opacity="0.1"/>
</linearGradient>
<linearGradient id="paint8_linear_1358_20185" x1="101.255" y1="199.855" x2="148.898" y2="265.978" gradientUnits="userSpaceOnUse">
<stop stop-color="#2C4E9B" stop-opacity="0.1"/>
<stop offset="1" stop-color="white" stop-opacity="0.1"/>
</linearGradient>
<clipPath id="clip0_1358_20185">
<rect width="662.268" height="662.268" fill="white" transform="translate(-244 287.157) rotate(-35.7742)"/>
</clipPath>
</defs>
</svg>
